<?xml version="1.0" standalone="no"?><!DOCTYPE svg PUBLIC "-//W3C//DTD SVG 1.1//EN" "http://www.w3.org/Graphics/SVG/1.1/DTD/svg11.dtd"><svg t="1577872146300" class="icon" viewBox="0 0 1024 1024" version="1.1" xmlns="http://www.w3.org/2000/svg" p-id="1541" xmlns:xlink="http://www.w3.org/1999/xlink" width="200" height="200"><defs><style type="text/css"></style></defs><path d="M798.219335 72.358898A479.463028 479.463028 0 0 0 544.792535 0h-1.450591C279.334361 0 64.390889 214.559492 64.006909 478.652404a479.121712 479.121712 0 0 0 63.271371 238.792896L3.082082 978.210385a31.998333 31.998333 0 0 0 42.664445 42.62178l260.807749-124.153534c222.751065 127.353367 509.24281 56.44506 645.854362-163.276829 139.76872-224.756294 70.609656-521.316848-154.189303-661.042904z m99.877465 627.209999c-121.167023 194.763189-378.134972 254.706734-572.940826 133.667705a32.040998 32.040998 0 0 0-30.633071-1.706578l-194.848518 92.752503 92.752502-194.805854a31.913005 31.913005 0 0 0-1.749242-30.675736 414.869059 414.869059 0 0 1-62.716734-220.063205C128.344891 249.885652 314.575192 63.996667 543.341944 63.996667h1.450591c77.691954 0 153.677329 21.673538 219.63656 62.716733 194.763189 121.124358 254.749398 378.092308 133.667705 572.855497z" p-id="1542" fill="#1296db"></path><path d="M671.975244 543.971668h-255.986667a31.998333 31.998333 0 0 0-31.998334 31.998334 160.204989 160.204989 0 0 0 159.991667 159.991667 160.204989 160.204989 0 0 0 159.991667-159.991667 31.998333 31.998333 0 0 0-31.998333-31.998334z m-127.993334 127.993334a96.208322 96.208322 0 0 1-90.533951-63.996667h181.025238a96.122994 96.122994 0 0 1-90.491287 63.996667z" p-id="1543" fill="#1296db"></path><path d="M346.658854 421.31139m-42.664444 0a42.664445 42.664445 0 1 0 85.328889 0 42.664445 42.664445 0 1 0-85.328889 0Z" p-id="1544" fill="#1296db"></path><path d="M730.638855 421.31139m-42.664444 0a42.664445 42.664445 0 1 0 85.328889 0 42.664445 42.664445 0 1 0-85.328889 0Z" p-id="1545" fill="#1296db"></path></svg>